# xmcd
#
# Track frame offsets:
#	150
#	9972
#	21815
#	38525
#	52343
#	71122
#	90503
#	103800
#	116922
#	133726
#	155737
#	167647
#	182056
#	195310
#
# Disc length: 2738 seconds
#
# Revision: 1
# Processed by: cddbd v1.5.2PL0 Copyright (c) Steve Scherf et al.
# Submitted via: audiograbber 1.83.01
#
DISCID=bc0ab00e
DTITLE=Eric Woodhead - Highway Of Life
DYEAR=2019
DGENRE=Country
TTITLE0=Back To Those Rolling Plains
TTITLE1=It Is No Secret
TTITLE2=Highway Of Life
TTITLE3=Blind Boys Prayer
TTITLE4=Reckless Wind
TTITLE5=He's Only A Prayer Away
TTITLE6=Sweet By and By
TTITLE7=Whipstick
TTITLE8=School Day Yodel
TTITLE9=The Water Is Wide
TTITLE10=Where The Murrumbidgee
TTITLE11=Just One More Yodel
TTITLE12=Never Grow Old
TTITLE13=This World Is Not My Home
EXTD=
EXTT0=
EXTT1=
EXTT2=
EXTT3=
EXTT4=
EXTT5=
EXTT6=
EXTT7=
EXTT8=
EXTT9=
EXTT10=
EXTT11=
EXTT12=
EXTT13=
PLAYORDER=
